<svg xmlns="http://www.w3.org/2000/svg" viewBox="0 0 512 512">
  <defs>
    <radialGradient id="bg" cx="50%" cy="35%" r="80%">
      <stop offset="0%" stop-color="#1a2151"/>
      <stop offset="100%" stop-color="#060814"/>
    </radialGradient>
    <radialGradient id="ast" cx="35%" cy="30%" r="80%">
      <stop offset="0%" stop-color="#a8b4d8"/>
      <stop offset="45%" stop-color="#6b7699"/>
      <stop offset="100%" stop-color="#262c4a"/>
    </radialGradient>
    <linearGradient id="gem" x1="0" y1="0" x2="1" y2="1">
      <stop offset="0%" stop-color="#b7f4ff"/>
      <stop offset="50%" stop-color="#6ee7ff"/>
      <stop offset="100%" stop-color="#2a9df4"/>
    </linearGradient>
  </defs>
  <rect width="512" height="512" rx="96" fill="url(#bg)"/>
  <circle cx="120" cy="90" r="4" fill="#fff" opacity=".8"/>
  <circle cx="420" cy="70" r="3" fill="#fff" opacity=".6"/>
  <circle cx="460" cy="180" r="4" fill="#fff" opacity=".7"/>
  <circle cx="70" cy="220" r="3" fill="#fff" opacity=".5"/>
  <circle cx="90" cy="430" r="4" fill="#fff" opacity=".6"/>
  <circle cx="440" cy="420" r="3" fill="#fff" opacity=".8"/>
  <circle cx="256" cy="270" r="165" fill="url(#ast)"/>
  <ellipse cx="200" cy="220" rx="34" ry="30" fill="#171b33" opacity=".7"/>
  <ellipse cx="320" cy="340" rx="22" ry="19" fill="#171b33" opacity=".6"/>
  <ellipse cx="190" cy="330" rx="15" ry="13" fill="#171b33" opacity=".5"/>
  <g transform="translate(292,218) scale(1.25)">
    <polygon points="0,-38 32,-12 20,34 -20,34 -32,-12" fill="url(#gem)" stroke="#e6fbff" stroke-width="5" stroke-linejoin="round"/>
    <polyline points="-32,-12 0,2 32,-12" fill="none" stroke="#e6fbff" stroke-width="4" opacity=".8"/>
    <line x1="0" y1="2" x2="0" y2="-38" stroke="#e6fbff" stroke-width="4" opacity=".8"/>
  </g>
</svg>
